<svg xmlns="http://www.w3.org/2000/svg" viewBox="0 0 160 160" width="160" height="160">
  <rect width="160" height="160" rx="32" fill="#020617"/>
  <g transform="translate(0, -2) scale(1)">
    <!-- Shield -->
    <path
      d="M50 30 L110 30 C115 30 118 33 118 38 C118 60 117 78 107 93 C97 108 85 118 80 122 C75 118 63 108 53 93 C43 78 42 60 42 38 C42 33 45 30 50 30 Z"
      fill="none"
      stroke="#E8530E"
      stroke-width="4"
    />
    <!-- Flame -->
    <path
      d="M80 116 C68 109 60 95 64 79 C66 73 68.5 67 70 61 C71 66 73 71 76 76 C79 70 80.5 64 80 58 C87 66 92 77 89.5 88 C91 84 92 80 91.5 76 C96 83 97 92 93 102 C88 113 82 118 80 116 Z"
      fill="#E8530E"
    />
    <!-- Inner core -->
    <path
      d="M80 110 C73 106 68 97 71 87 C72 84 74 80 75 76 C76 79 77.5 83 80 87 C82 83 83 78 82.5 74 C86 79 89 86 87 94 C85 100 82 108 80 110 Z"
      fill="#FF8C42"
      opacity="0.5"
    />
    <!-- Bright tip -->
    <path
      d="M80 102 C77 100 74 95 76 89 C77 87 78 85.5 79 83 C79.5 85.5 80.5 87 82 89.5 C83 88 83.5 85 83.5 83 C85.5 86 87 90 85.5 95 C84 99 82 101 80 102 Z"
      fill="#FFB870"
      opacity="0.3"
    />
  </g>
</svg>
